<svg width="37" height="37" viewBox="0 0 37 37" fill="none" xmlns="http://www.w3.org/2000/svg">
<rect x="0.905029" y="0.463867" width="36" height="36" rx="18" fill="#7C7E82"/>
<path d="M27.0613 14.3701C27.4363 15.6826 27.4363 18.4951 27.4363 18.4951C27.4363 18.4951 27.4363 21.2764 27.0613 22.6201C26.8738 23.3701 26.28 23.9326 25.5613 24.1201C24.2175 24.4639 18.905 24.4639 18.905 24.4639C18.905 24.4639 13.5613 24.4639 12.2175 24.1201C11.4988 23.9326 10.905 23.3701 10.7175 22.6201C10.3425 21.2764 10.3425 18.4951 10.3425 18.4951C10.3425 18.4951 10.3425 15.6826 10.7175 14.3701C10.905 13.6201 11.4988 13.0264 12.2175 12.8389C13.5613 12.4639 18.905 12.4639 18.905 12.4639C18.905 12.4639 24.2175 12.4639 25.5613 12.8389C26.28 13.0264 26.8738 13.6201 27.0613 14.3701ZM17.155 21.0264L21.5925 18.4951L17.155 15.9639V21.0264Z" fill="white"/>
</svg>
