<svg width="37" height="37" viewBox="0 0 37 37" fill="none" xmlns="http://www.w3.org/2000/svg">
<rect x="0.905029" y="0.463867" width="36" height="36" rx="18" fill="#7C7E82"/>
<path d="M26.655 18.4639C26.655 22.3389 23.8113 25.5576 20.0925 26.1201V20.7139H21.905L22.2488 18.4639H20.0925V17.0264C20.0925 16.4014 20.405 15.8076 21.3738 15.8076H22.3425V13.9014C22.3425 13.9014 21.4675 13.7451 20.5925 13.7451C18.8425 13.7451 17.6863 14.8389 17.6863 16.7764V18.4639H15.7175V20.7139H17.6863V26.1201C13.9675 25.5576 11.155 22.3389 11.155 18.4639C11.155 14.1826 14.6238 10.7139 18.905 10.7139C23.1863 10.7139 26.655 14.1826 26.655 18.4639Z" fill="white"/>
</svg>
