<svg width="50" height="50" viewBox="0 0 50 50" fill="none" xmlns="http://www.w3.org/2000/svg">
<path d="M23.6694 2.27321C23.6694 2.27812 23.6727 2.28302 23.6727 2.28956C23.6727 2.29446 23.6694 2.29936 23.6694 2.3059V22.1574H23.6662C23.6645 22.9192 23.0404 23.5353 22.2729 23.5353L22.2697 23.5347V23.5363H2.3611C2.34165 23.5369 2.3222 23.5429 2.3003 23.5429C1.52975 23.5429 0.906481 22.9225 0.906481 22.1571C0.906481 22.1268 0.903214 22.1118 0.906481 22.082V22.069C1.62957 10.7849 10.6626 1.75125 21.9933 0.933201L22.2732 0.910156C23.0323 0.910156 23.65 1.50691 23.6665 2.25603H23.6697L23.6694 2.27321ZM2.30542 49.4644C1.54642 49.4644 0.928628 48.8675 0.909161 48.0688L0.912432 28.2175C0.914064 27.4563 1.53813 26.8402 2.30868 26.8377C2.30868 26.8377 22.2567 26.8312 22.2786 26.8312C23.0491 26.8312 23.6724 27.4516 23.6724 28.217C23.6724 28.2472 23.6757 28.2623 23.6724 28.3053C22.9493 39.5893 13.9163 48.6227 2.58562 49.4415L2.30542 49.4644Z" fill="#0F213C"/>
<path d="M49.6614 2.27321V2.28956V2.3059V22.1574H49.6582C49.6518 22.9192 49.032 23.5353 48.2644 23.5353C48.2612 23.5353 48.2612 23.5347 48.2594 23.5347V23.5363H28.3499C28.3304 23.5369 28.3114 23.5429 28.292 23.5429C27.5214 23.5429 26.8951 22.9225 26.8951 22.1571V22.082V22.069C27.6188 10.7849 36.6517 1.75125 47.985 0.933201L48.2619 0.910156C49.0209 0.910156 49.6393 1.50691 49.6589 2.25603H49.6622L49.6614 2.27321ZM49.6614 48.1003V48.1193H49.6582C49.6385 48.8679 49.0202 49.4644 48.2612 49.4644L47.9842 49.4422C36.6513 48.6235 27.6182 39.5897 26.8945 28.3058V28.2927V28.2172C26.8945 27.4518 27.5208 26.8314 28.2914 26.8314C28.3108 26.8314 28.3298 26.8363 28.3493 26.838H48.2591V26.8396H48.2637C49.0313 26.8396 49.6514 27.4557 49.6575 28.2169H49.6607V48.0684V48.0849L49.6614 48.1003Z" fill="#323246"/>
</svg>
