<svg width="37" height="37" viewBox="0 0 37 37" fill="none" xmlns="http://www.w3.org/2000/svg">
<rect x="0.905029" y="0.463867" width="36" height="36" rx="18" fill="#7C7E82"/>
<path d="M24.905 11.4639C25.4363 11.4639 25.905 11.9326 25.905 12.4951V24.4639C25.905 25.0264 25.4363 25.4639 24.905 25.4639H12.8738C12.3425 25.4639 11.905 25.0264 11.905 24.4639V12.4951C11.905 11.9326 12.3425 11.4639 12.8738 11.4639H24.905ZM16.1238 23.4639V16.8076H14.0613V23.4639H16.1238ZM15.0925 15.8701C15.7488 15.8701 16.28 15.3389 16.28 14.6826C16.28 14.0264 15.7488 13.4639 15.0925 13.4639C14.405 13.4639 13.8738 14.0264 13.8738 14.6826C13.8738 15.3389 14.405 15.8701 15.0925 15.8701ZM23.905 23.4639V19.8076C23.905 18.0264 23.4988 16.6201 21.405 16.6201C20.405 16.6201 19.7175 17.1826 19.4363 17.7139H19.405V16.8076H17.4363V23.4639H19.4988V20.1826C19.4988 19.3076 19.655 18.4639 20.7488 18.4639C21.8113 18.4639 21.8113 19.4639 21.8113 20.2139V23.4639H23.905Z" fill="white"/>
</svg>
