<svg width="37" height="37" viewBox="0 0 37 37" fill="none" xmlns="http://www.w3.org/2000/svg">
<rect x="0.905029" y="0.463867" width="36" height="36" rx="18" fill="#7C7E82"/>
<path d="M25.2488 15.2139C25.2488 15.3701 25.2488 15.4951 25.2488 15.6514C25.2488 19.9951 21.9675 24.9639 15.9363 24.9639C14.0613 24.9639 12.3425 24.4326 10.905 23.4951C11.155 23.5264 11.405 23.5576 11.6863 23.5576C13.2175 23.5576 14.6238 23.0264 15.7488 22.1514C14.3113 22.1201 13.0925 21.1826 12.6863 19.8701C12.905 19.9014 13.0925 19.9326 13.3113 19.9326C13.5925 19.9326 13.905 19.8701 14.155 19.8076C12.655 19.4951 11.53 18.1826 11.53 16.5889V16.5576C11.9675 16.8076 12.4988 16.9326 13.03 16.9639C12.1238 16.3701 11.5613 15.3701 11.5613 14.2451C11.5613 13.6201 11.7175 13.0576 11.9988 12.5889C13.6238 14.5576 16.0613 15.8701 18.78 16.0264C18.7175 15.7764 18.6863 15.5264 18.6863 15.2764C18.6863 13.4639 20.155 11.9951 21.9675 11.9951C22.905 11.9951 23.7488 12.3701 24.3738 13.0264C25.0925 12.8701 25.8113 12.5889 26.4363 12.2139C26.1863 12.9951 25.6863 13.6201 24.9988 14.0264C25.655 13.9639 26.3113 13.7764 26.8738 13.5264C26.4363 14.1826 25.8738 14.7451 25.2488 15.2139Z" fill="white"/>
</svg>
