<svg width="147" height="52" viewBox="0 0 147 52" fill="none" xmlns="http://www.w3.org/2000/svg">
<path d="M23.6694 4.27321C23.6694 4.27812 23.6727 4.28302 23.6727 4.28956C23.6727 4.29446 23.6694 4.29936 23.6694 4.3059V24.1574H23.6662C23.6645 24.9192 23.0404 25.5353 22.2729 25.5353L22.2697 25.5347V25.5363H2.3611C2.34165 25.5369 2.3222 25.5429 2.3003 25.5429C1.52975 25.5429 0.906481 24.9225 0.906481 24.1571C0.906481 24.1268 0.903214 24.1118 0.906481 24.082V24.069C1.62957 12.7849 10.6626 3.75125 21.9933 2.9332L22.2732 2.91016C23.0323 2.91016 23.65 3.50691 23.6665 4.25603H23.6697L23.6694 4.27321ZM2.30542 51.4644C1.54642 51.4644 0.928628 50.8675 0.909161 50.0688L0.912432 30.2175C0.914064 29.4563 1.53813 28.8402 2.30868 28.8377C2.30868 28.8377 22.2567 28.8312 22.2786 28.8312C23.0491 28.8312 23.6724 29.4516 23.6724 30.217C23.6724 30.2472 23.6757 30.2623 23.6724 30.3053C22.9493 41.5893 13.9163 50.6227 2.58562 51.4415L2.30542 51.4644Z" fill="#0F213C"/>
<path d="M49.6614 4.27321V4.28956V4.3059V24.1574H49.6582C49.6518 24.9192 49.032 25.5353 48.2644 25.5353C48.2612 25.5353 48.2612 25.5347 48.2594 25.5347V25.5363H28.3499C28.3304 25.5369 28.3114 25.5429 28.292 25.5429C27.5214 25.5429 26.8951 24.9225 26.8951 24.1571V24.082V24.069C27.6188 12.7849 36.6517 3.75125 47.985 2.9332L48.2619 2.91016C49.0209 2.91016 49.6393 3.50691 49.6589 4.25603H49.6622L49.6614 4.27321ZM49.6614 50.1003V50.1193H49.6582C49.6385 50.8679 49.0202 51.4644 48.2612 51.4644L47.9842 51.4422C36.6513 50.6235 27.6182 41.5897 26.8945 30.3058V30.2927V30.2172C26.8945 29.4518 27.5208 28.8314 28.2914 28.8314C28.3108 28.8314 28.3298 28.8363 28.3493 28.838H48.2591V28.8396H48.2637C49.0313 28.8396 49.6514 29.4557 49.6575 30.2169H49.6607V50.0684V50.0849L49.6614 50.1003Z" fill="#323246"/>
<path d="M70.0239 24.7182C68.8697 24.7182 67.793 24.5141 66.7936 24.1059C65.7943 23.6977 64.9216 23.1277 64.1756 22.3958C63.4297 21.6639 62.8455 20.8053 62.4233 19.82C62.0151 18.8207 61.811 17.7439 61.811 16.5898C61.811 15.4215 62.0151 14.3448 62.4233 13.3595C62.8315 12.3742 63.4085 11.5156 64.1545 10.7837C64.9005 10.0518 65.7732 9.48882 66.7725 9.09471C67.7719 8.68653 68.8557 8.48244 70.0239 8.48244C71.1921 8.48244 72.2759 8.68653 73.2753 9.09471C74.2746 9.50289 75.1473 10.0729 75.8933 10.8049C76.6392 11.5227 77.2163 12.3742 77.6245 13.3595C78.0468 14.3448 78.2579 15.4215 78.2579 16.5898C78.2579 17.7439 78.0468 18.8207 77.6245 19.82C77.2023 20.8053 76.6181 21.6639 75.8721 22.3958C75.1262 23.1277 74.2535 23.6977 73.2542 24.1059C72.2689 24.5141 71.1921 24.7182 70.0239 24.7182ZM70.0239 22.1002C70.798 22.1002 71.5088 21.9665 72.1563 21.6991C72.8038 21.4176 73.3668 21.0305 73.8453 20.5379C74.338 20.0452 74.7109 19.4611 74.9643 18.7855C75.2317 18.1099 75.3654 17.378 75.3654 16.5898C75.3654 15.8016 75.2317 15.0767 74.9643 14.4151C74.7109 13.7395 74.338 13.1554 73.8453 12.6628C73.3668 12.1561 72.8038 11.769 72.1563 11.5016C71.5088 11.2341 70.798 11.1004 70.0239 11.1004C69.2638 11.1004 68.5601 11.2341 67.9126 11.5016C67.2652 11.769 66.6951 12.1561 66.2025 12.6628C65.7239 13.1554 65.3509 13.7395 65.0835 14.4151C64.8161 15.0767 64.6824 15.8016 64.6824 16.5898C64.6824 17.378 64.8161 18.1099 65.0835 18.7855C65.3509 19.4611 65.7239 20.0452 66.2025 20.5379C66.6951 21.0305 67.2652 21.4176 67.9126 21.6991C68.5601 21.9665 69.2638 22.1002 70.0239 22.1002ZM73.6553 26.365L68.7571 18.1732H71.7551L76.7167 26.365H73.6553ZM84.6747 24.7182C83.788 24.7182 83.0138 24.5211 82.3523 24.127C81.7048 23.7329 81.2052 23.184 80.8533 22.4802C80.5155 21.7765 80.3466 20.9531 80.3466 20.01V12.9795H83.1124V19.7778C83.1124 20.2564 83.2039 20.6786 83.3868 21.0446C83.5839 21.3964 83.8583 21.678 84.2102 21.8891C84.5762 22.0861 84.9844 22.1847 85.4348 22.1847C85.8852 22.1847 86.2863 22.0861 86.6382 21.8891C86.9901 21.678 87.2645 21.3894 87.4616 21.0235C87.6587 20.6575 87.7572 20.2212 87.7572 19.7145V12.9795H90.523V24.4648H87.905V22.2058L88.1372 22.6069C87.8698 23.3107 87.4264 23.8385 86.8071 24.1904C86.2019 24.5423 85.4911 24.7182 84.6747 24.7182ZM98.71 24.7182C97.5839 24.7182 96.5564 24.4578 95.6275 23.937C94.7126 23.4162 93.9807 22.7054 93.4317 21.8046C92.8969 20.9038 92.6295 19.8763 92.6295 18.7222C92.6295 17.568 92.8969 16.5405 93.4317 15.6397C93.9807 14.7389 94.7126 14.0281 95.6275 13.5073C96.5424 12.9865 97.5699 12.7261 98.71 12.7261C99.836 12.7261 100.856 12.9865 101.771 13.5073C102.686 14.0281 103.411 14.7389 103.946 15.6397C104.495 16.5264 104.769 17.5539 104.769 18.7222C104.769 19.8763 104.495 20.9038 103.946 21.8046C103.397 22.7054 102.665 23.4162 101.75 23.937C100.835 24.4578 99.8219 24.7182 98.71 24.7182ZM98.71 22.1847C99.3293 22.1847 99.8712 22.0369 100.336 21.7413C100.814 21.4457 101.187 21.0375 101.455 20.5167C101.736 19.9819 101.877 19.3837 101.877 18.7222C101.877 18.0465 101.736 17.4554 101.455 16.9487C101.187 16.4279 100.814 16.0197 100.336 15.7241C99.8712 15.4145 99.3293 15.2597 98.71 15.2597C98.0766 15.2597 97.5206 15.4145 97.042 15.7241C96.5635 16.0197 96.1835 16.4279 95.9019 16.9487C95.6345 17.4554 95.5008 18.0465 95.5008 18.7222C95.5008 19.3837 95.6345 19.9819 95.9019 20.5167C96.1835 21.0375 96.5635 21.4457 97.042 21.7413C97.5206 22.0369 98.0766 22.1847 98.71 22.1847ZM106.867 24.4648V12.9795H109.464V15.5341L109.253 15.1541C109.52 14.2955 109.935 13.6973 110.498 13.3595C111.075 13.0217 111.765 12.8528 112.567 12.8528H113.243V15.3019H112.251C111.462 15.3019 110.829 15.5482 110.35 16.0408C109.872 16.5194 109.633 17.195 109.633 18.0677V24.4648H106.867ZM118.247 24.7182C117.445 24.7182 116.748 24.5845 116.157 24.3171C115.566 24.0496 115.108 23.6696 114.785 23.177C114.461 22.6703 114.299 22.0861 114.299 21.4246C114.299 20.7912 114.44 20.2282 114.721 19.7356C115.003 19.2289 115.439 18.8066 116.03 18.4688C116.621 18.131 117.367 17.8917 118.268 17.751L122.026 17.1387V19.25L118.796 19.7989C118.247 19.8974 117.839 20.0734 117.571 20.3267C117.304 20.5801 117.17 20.9109 117.17 21.319C117.17 21.7131 117.318 22.0298 117.614 22.2691C117.923 22.4943 118.303 22.6069 118.754 22.6069C119.331 22.6069 119.838 22.4873 120.274 22.248C120.724 21.9946 121.069 21.6498 121.308 21.2135C121.562 20.7771 121.688 20.2986 121.688 19.7778V16.822C121.688 16.3294 121.491 15.9212 121.097 15.5975C120.717 15.2597 120.211 15.0908 119.577 15.0908C118.986 15.0908 118.458 15.2526 117.994 15.5763C117.543 15.886 117.213 16.3012 117.001 16.822L114.742 15.7241C114.968 15.1189 115.319 14.5981 115.798 14.1618C116.291 13.7114 116.868 13.3595 117.529 13.1061C118.191 12.8528 118.909 12.7261 119.683 12.7261C120.626 12.7261 121.456 12.9021 122.174 13.2539C122.892 13.5917 123.448 14.0703 123.842 14.6896C124.25 15.2948 124.454 16.0056 124.454 16.822V24.4648H121.836V22.5014L122.427 22.4591C122.132 22.9518 121.78 23.367 121.372 23.7048C120.964 24.0285 120.499 24.2819 119.978 24.4648C119.458 24.6337 118.88 24.7182 118.247 24.7182ZM62.2755 47.4648V31.7358H72.7686V34.2693H65.1468V38.6186H71.8185V41.1521H65.1468V47.4648H62.2755ZM74.414 47.4648V35.9795H77.1798V47.4648H74.414ZM74.414 34.6916V31.7358H77.1798V34.6916H74.414ZM79.7335 47.4648V35.9795H82.3304V38.2385L82.1192 37.8374C82.3867 37.1477 82.823 36.6269 83.4282 36.275C84.0475 35.9091 84.7654 35.7261 85.5817 35.7261C86.4262 35.7261 87.1722 35.9091 87.8197 36.275C88.4812 36.641 88.995 37.1548 89.3609 37.8163C89.7269 38.4637 89.9099 39.2168 89.9099 40.0754V47.4648H87.1441V40.7299C87.1441 40.2231 87.0456 39.7868 86.8485 39.4209C86.6515 39.0549 86.377 38.7734 86.0251 38.5763C85.6873 38.3652 85.2862 38.2597 84.8217 38.2597C84.3713 38.2597 83.9701 38.3652 83.6182 38.5763C83.2664 38.7734 82.9919 39.0549 82.7948 39.4209C82.5978 39.7868 82.4993 40.2231 82.4993 40.7299V47.4648H79.7335ZM95.7322 47.7182C94.9299 47.7182 94.2332 47.5845 93.642 47.3171C93.0509 47.0496 92.5934 46.6696 92.2697 46.177C91.946 45.6703 91.7841 45.0861 91.7841 44.4246C91.7841 43.7912 91.9249 43.2282 92.2064 42.7356C92.4879 42.2289 92.9242 41.8066 93.5154 41.4688C94.1065 41.131 94.8525 40.8917 95.7533 40.751L99.5114 40.1387V42.25L96.2812 42.7989C95.7322 42.8974 95.324 43.0734 95.0566 43.3267C94.7892 43.5801 94.6555 43.9109 94.6555 44.319C94.6555 44.7131 94.8033 45.0298 95.0988 45.2691C95.4085 45.4943 95.7885 45.6069 96.2389 45.6069C96.816 45.6069 97.3227 45.4873 97.759 45.248C98.2095 44.9946 98.5543 44.6498 98.7936 44.2135C99.0469 43.7771 99.1736 43.2986 99.1736 42.7778V39.822C99.1736 39.3294 98.9766 38.9212 98.5824 38.5975C98.2024 38.2597 97.6957 38.0908 97.0623 38.0908C96.4712 38.0908 95.9433 38.2526 95.4789 38.5763C95.0285 38.886 94.6977 39.3012 94.4866 39.822L92.2275 38.7241C92.4527 38.1189 92.8046 37.5981 93.2831 37.1618C93.7758 36.7114 94.3528 36.3595 95.0144 36.1061C95.6759 35.8528 96.3938 35.7261 97.1679 35.7261C98.1109 35.7261 98.9414 35.9021 99.6592 36.2539C100.377 36.5917 100.933 37.0703 101.327 37.6896C101.735 38.2948 101.939 39.0056 101.939 39.822V47.4648H99.3214V45.5014L99.9126 45.4591C99.617 45.9518 99.2651 46.367 98.8569 46.7048C98.4487 47.0285 97.9843 47.2819 97.4635 47.4648C96.9427 47.6337 96.3656 47.7182 95.7322 47.7182ZM104.496 47.4648V35.9795H107.093V38.2385L106.881 37.8374C107.149 37.1477 107.585 36.6269 108.19 36.275C108.81 35.9091 109.528 35.7261 110.344 35.7261C111.188 35.7261 111.934 35.9091 112.582 36.275C113.243 36.641 113.757 37.1548 114.123 37.8163C114.489 38.4637 114.672 39.2168 114.672 40.0754V47.4648H111.906V40.7299C111.906 40.2231 111.808 39.7868 111.611 39.4209C111.414 39.0549 111.139 38.7734 110.787 38.5763C110.45 38.3652 110.048 38.2597 109.584 38.2597C109.133 38.2597 108.732 38.3652 108.38 38.5763C108.029 38.7734 107.754 39.0549 107.557 39.4209C107.36 39.7868 107.261 40.2231 107.261 40.7299V47.4648H104.496ZM122.542 47.7182C121.402 47.7182 120.375 47.4578 119.46 46.937C118.559 46.4022 117.848 45.6843 117.327 44.7835C116.807 43.8686 116.546 42.8411 116.546 41.701C116.546 40.561 116.807 39.5405 117.327 38.6397C117.848 37.7389 118.559 37.0281 119.46 36.5073C120.375 35.9865 121.402 35.7261 122.542 35.7261C123.359 35.7261 124.119 35.8739 124.823 36.1695C125.526 36.451 126.132 36.8451 126.638 37.3518C127.159 37.8444 127.532 38.4356 127.757 39.1253L125.329 40.1809C125.118 39.6038 124.759 39.1394 124.253 38.7875C123.76 38.4356 123.19 38.2597 122.542 38.2597C121.937 38.2597 121.395 38.4074 120.917 38.703C120.452 38.9986 120.086 39.4068 119.819 39.9276C119.551 40.4484 119.418 41.0465 119.418 41.7222C119.418 42.3978 119.551 42.996 119.819 43.5167C120.086 44.0375 120.452 44.4457 120.917 44.7413C121.395 45.0369 121.937 45.1847 122.542 45.1847C123.204 45.1847 123.781 45.0087 124.274 44.6568C124.766 44.305 125.118 43.8334 125.329 43.2423L127.757 44.3401C127.532 44.9876 127.166 45.5717 126.659 46.0925C126.153 46.5992 125.547 47.0004 124.844 47.2959C124.14 47.5774 123.373 47.7182 122.542 47.7182ZM135.303 47.7182C134.121 47.7182 133.086 47.4508 132.199 46.9159C131.313 46.3811 130.623 45.6562 130.13 44.7413C129.638 43.8264 129.391 42.813 129.391 41.701C129.391 40.5469 129.638 39.5264 130.13 38.6397C130.637 37.7389 131.32 37.0281 132.178 36.5073C133.051 35.9865 134.022 35.7261 135.092 35.7261C135.993 35.7261 136.781 35.8739 137.456 36.1695C138.146 36.4651 138.73 36.8732 139.209 37.394C139.687 37.9148 140.053 38.513 140.307 39.1886C140.56 39.8502 140.687 40.568 140.687 41.3421C140.687 41.5392 140.673 41.7433 140.644 41.9544C140.63 42.1655 140.595 42.3485 140.539 42.5033H131.672V40.392H138.977L137.668 41.3844C137.794 40.7369 137.759 40.1598 137.562 39.6531C137.379 39.1464 137.069 38.7452 136.633 38.4497C136.211 38.1541 135.697 38.0063 135.092 38.0063C134.515 38.0063 134.001 38.1541 133.551 38.4497C133.1 38.7312 132.755 39.1534 132.516 39.7164C132.291 40.2654 132.206 40.9339 132.263 41.7222C132.206 42.4259 132.298 43.0523 132.537 43.6012C132.79 44.1361 133.156 44.5513 133.635 44.8469C134.128 45.1424 134.691 45.2902 135.324 45.2902C135.957 45.2902 136.492 45.1565 136.929 44.8891C137.379 44.6217 137.731 44.2627 137.984 43.8123L140.222 44.9102C139.997 45.4591 139.645 45.9447 139.167 46.367C138.688 46.7892 138.118 47.12 137.456 47.3593C136.809 47.5986 136.091 47.7182 135.303 47.7182Z" fill="black"/>
</svg>
