<svg width="41" height="41" viewBox="0 0 41 41" fill="none" xmlns="http://www.w3.org/2000/svg">
<rect x="0.794922" y="0.0742188" width="40" height="40" rx="20" fill="#121943"/>
<path d="M29.4434 17.5391C29.584 17.4336 29.7949 17.5391 29.7949 17.7148V24.8867C29.7949 25.8359 29.0215 26.5742 28.1074 26.5742H13.4824C12.5332 26.5742 11.7949 25.8359 11.7949 24.8867V17.7148C11.7949 17.5391 11.9707 17.4336 12.1113 17.5391C12.9199 18.1719 13.9395 18.9453 17.5254 21.5469C18.2637 22.0742 19.5293 23.2344 20.7949 23.2344C22.0254 23.2344 23.3262 22.0742 24.0293 21.5469C27.6152 18.9453 28.6348 18.1719 29.4434 17.5391ZM20.7949 22.0742C19.9512 22.1094 18.791 21.0547 18.1934 20.6328C13.5176 17.2578 13.166 16.9414 12.1113 16.0977C11.9004 15.957 11.7949 15.7109 11.7949 15.4297V14.7617C11.7949 13.8477 12.5332 13.0742 13.4824 13.0742H28.1074C29.0215 13.0742 29.7949 13.8477 29.7949 14.7617V15.4297C29.7949 15.7109 29.6543 15.957 29.4434 16.0977C28.3887 16.9414 28.0371 17.2578 23.3613 20.6328C22.7637 21.0547 21.6035 22.1094 20.7949 22.0742Z" fill="white"/>
</svg>
