<svg width="49" height="49" viewBox="0 0 49 49" fill="none" xmlns="http://www.w3.org/2000/svg">
<path d="M22.7834 1.494C22.7834 1.49891 22.7867 1.50381 22.7867 1.51035C22.7867 1.51525 22.7834 1.52016 22.7834 1.5267V21.3782H22.7802C22.7785 22.14 22.1545 22.7561 21.387 22.7561L21.3837 22.7555V22.7571H1.47511C1.45566 22.7577 1.43622 22.7637 1.41431 22.7637C0.643761 22.7637 0.020495 22.1433 0.020495 21.3779C0.020495 21.3476 0.0172279 21.3326 0.020495 21.3028V21.2898C0.743581 10.0057 9.7766 0.972044 21.1073 0.153996L21.3872 0.130951C22.1463 0.130951 22.764 0.727705 22.7805 1.47683H22.7837L22.7834 1.494ZM1.41943 48.6852C0.660433 48.6852 0.0426418 48.0883 0.0231751 47.2896L0.0264458 27.4383C0.0280776 26.6771 0.652145 26.061 1.4227 26.0585C1.4227 26.0585 21.3707 26.052 21.3926 26.052C22.1632 26.052 22.7864 26.6724 22.7864 27.4378C22.7864 27.468 22.7897 27.4831 22.7864 27.5261C22.0633 38.8101 13.0303 47.8435 1.69963 48.6623L1.41943 48.6852Z" fill="#0F213C"/>
<path d="M48.7755 1.494V1.51035V1.5267V21.3782H48.7722C48.7658 22.14 48.146 22.7561 47.3784 22.7561C47.3752 22.7561 47.3752 22.7555 47.3734 22.7555V22.7571H27.4639C27.4444 22.7577 27.4255 22.7637 27.406 22.7637C26.6355 22.7637 26.0092 22.1433 26.0092 21.3779V21.3028V21.2898C26.7329 10.0057 35.7657 0.972044 47.099 0.153996L47.3759 0.130951C48.1349 0.130951 48.7533 0.727705 48.773 1.47683H48.7762L48.7755 1.494ZM48.7755 47.3211V47.3401H48.7722C48.7526 48.0887 48.1342 48.6852 47.3752 48.6852L47.0982 48.663C35.7654 47.8443 26.7322 38.8105 26.0085 27.5266V27.5135V27.438C26.0085 26.6726 26.6348 26.0522 27.4054 26.0522C27.4249 26.0522 27.4438 26.0571 27.4633 26.0588H47.3731V26.0604H47.3777C48.1453 26.0604 48.7654 26.6765 48.7715 27.4377H48.7747V47.2892V47.3057L48.7755 47.3211Z" fill="#FACC15"/>
</svg>
