<svg width="56" height="56" viewBox="0 0 56 56" fill="none" xmlns="http://www.w3.org/2000/svg">
<g clip-path="url(#clip0_66_121)">
<mask id="mask0_66_121" style="mask-type:luminance" maskUnits="userSpaceOnUse" x="0" y="0" width="56" height="56">
<path d="M55.5 0.25H0.5V55.25H55.5V0.25Z" fill="white"/>
</mask>
<g mask="url(#mask0_66_121)">
<path d="M43.438 17.9913L46.4353 16.2429C39.9503 5.1024 25.9724 0.846485 14.3792 6.48277V2.21753H10.9102V12.6247H21.3174V9.15569H16.8856C26.6986 4.99312 38.0758 8.77908 43.438 17.9913Z" fill="#089EFF"/>
<path d="M11.7775 45.0189C3.73493 38.4872 1.61814 27.0857 6.78024 18.1024L3.77255 16.3679C-2.11524 26.6206 0.112559 39.6106 9.08024 47.3155H4.83929V50.7846H15.2465V40.3774H11.7775V45.0189Z" fill="#089EFF"/>
<path d="M48.1405 24.0172L40.7826 31.3768L43.2353 33.8295L46.184 30.8807C45.0274 41.6273 35.9717 49.7833 25.1631 49.8133V53.2823C38.041 53.2485 48.724 43.3099 49.686 30.4679L53.0476 33.8295L55.5002 31.3768L48.1405 24.0172Z" fill="#089EFF"/>
</g>
</g>
<defs>
<clipPath id="clip0_66_121">
<rect width="55" height="55" fill="white" transform="translate(0.5 0.25)"/>
</clipPath>
</defs>
</svg>
