<svg width="53" height="53" viewBox="0 0 53 53" fill="none" xmlns="http://www.w3.org/2000/svg">
<g id="SVG" clip-path="url(#clip0_66_136)">
<g id="Clip path group">
<mask id="mask0_66_136" style="mask-type:luminance" maskUnits="userSpaceOnUse" x="0" y="0" width="53" height="53">
<g id="clip0_716_823">
<path id="Vector" d="M52.5 0.89502H0.5V52.895H52.5V0.89502Z" fill="white"/>
</g>
</mask>
<g mask="url(#mask0_66_136)">
<g id="Group">
<path id="Vector_2" d="M32.1759 5.98382L27.6225 1.36678C27.4755 1.21684 27.2999 1.09784 27.1062 1.01682C26.9125 0.935794 26.7045 0.894383 26.4945 0.895027H26.4934C26.2832 0.894542 26.0751 0.936172 25.8813 1.01746C25.6875 1.09875 25.5119 1.21805 25.365 1.36831L20.8245 5.98382C20.5884 6.22384 20.4573 6.54784 20.46 6.88454C20.4628 7.22124 20.5991 7.54305 20.8392 7.77919C21.0792 8.01532 21.4032 8.14644 21.7399 8.14368C22.0766 8.14093 22.3984 8.00454 22.6345 7.76451L25.2307 5.12541V51.6255C25.2307 51.9622 25.3644 52.2851 25.6025 52.5232C25.8406 52.7613 26.1635 52.895 26.5002 52.895C26.8369 52.895 27.1598 52.7613 27.3979 52.5232C27.636 52.2851 27.7697 51.9622 27.7697 51.6255V5.13211L30.3659 7.76451C30.602 8.00454 30.9238 8.14093 31.2605 8.14368C31.5972 8.14644 31.9212 8.01532 32.1613 7.77919C32.4013 7.54305 32.5377 7.22124 32.5404 6.88454C32.5432 6.54784 32.4121 6.22384 32.1759 5.98382Z" fill="#FB5141"/>
<path id="Vector_3" d="M50.1478 19.4483L45.5328 14.9079C45.2928 14.6717 44.9688 14.5406 44.6321 14.5434C44.2954 14.5461 43.9736 14.6825 43.7374 14.9225C43.5013 15.1626 43.3702 15.4866 43.3729 15.8233C43.3757 16.16 43.5121 16.4818 43.7521 16.7179L46.3804 19.3034H40.8494C38.3779 19.3062 36.0084 20.2892 34.2608 22.0368C32.5132 23.7844 31.5301 26.1539 31.5273 28.6254V51.6254C31.5273 51.9621 31.6611 52.285 31.8992 52.5231C32.1373 52.7612 32.4602 52.895 32.7969 52.895C33.1336 52.895 33.4565 52.7612 33.6946 52.5231C33.9327 52.285 34.0664 51.9621 34.0664 51.6254V28.6254C34.0684 26.8271 34.7837 25.103 36.0553 23.8314C37.327 22.5598 39.051 21.8445 40.8494 21.8424H46.3947L43.7515 24.4491C43.5115 24.6854 43.3751 25.0073 43.3724 25.344C43.3697 25.6808 43.5009 26.0048 43.7371 26.2449C43.9733 26.4849 44.2952 26.6213 44.632 26.624C44.9687 26.6267 45.2928 26.4955 45.5328 26.2593L50.1498 21.7058C50.2997 21.5588 50.4186 21.3832 50.4996 21.1895C50.5805 20.9957 50.6218 20.7877 50.6211 20.5778V20.5767C50.6216 20.3665 50.5799 20.1584 50.4986 19.9646C50.4174 19.7708 50.2981 19.5952 50.1478 19.4483Z" fill="#FB5141"/>
<path id="Vector_4" d="M2.85219 19.4483L7.4677 14.9079C7.70773 14.6717 8.03173 14.5406 8.36843 14.5434C8.70513 14.5461 9.02694 14.6825 9.26307 14.9225C9.49921 15.1626 9.63032 15.4866 9.62757 15.8233C9.62482 16.16 9.48843 16.4818 9.2484 16.7179L6.62016 19.3034H12.1506C14.6221 19.3062 16.9916 20.2892 18.7392 22.0368C20.4868 23.7844 21.4699 26.1539 21.4727 28.6254V51.6254C21.4727 51.9621 21.3389 52.285 21.1008 52.5231C20.8627 52.7612 20.5398 52.895 20.2031 52.895C19.8664 52.895 19.5435 52.7612 19.3054 52.5231C19.0674 52.285 18.9336 51.9621 18.9336 51.6254V28.6254C18.9316 26.8271 18.2163 25.103 16.9447 23.8314C15.6731 22.5598 13.949 21.8445 12.1506 21.8424H6.60534L9.2485 24.4491C9.36736 24.5661 9.46202 24.7053 9.52708 24.8588C9.59215 25.0123 9.62634 25.1771 9.62771 25.3438C9.62907 25.5105 9.59759 25.6759 9.53505 25.8304C9.47252 25.985 9.38015 26.1257 9.26323 26.2446C9.1463 26.3634 9.00712 26.4581 8.85361 26.5231C8.7001 26.5882 8.53529 26.6224 8.36857 26.6238C8.20184 26.6251 8.03649 26.5937 7.88193 26.5311C7.72738 26.4686 7.58666 26.3762 7.4678 26.2593L2.85077 21.7058C2.70079 21.5588 2.58177 21.3833 2.50073 21.1895C2.41969 20.9958 2.37827 20.7878 2.37891 20.5778V20.5767C2.37844 20.3665 2.42008 20.1584 2.50137 19.9646C2.58265 19.7708 2.70194 19.5952 2.85219 19.4483Z" fill="#FB5141"/>
</g>
</g>
</g>
</g>
<defs>
<clipPath id="clip0_66_136">
<rect width="52" height="52" fill="white" transform="translate(0.5 0.89502)"/>
</clipPath>
</defs>
</svg>
