<svg width="50" height="50" viewBox="0 0 50 50" fill="none" xmlns="http://www.w3.org/2000/svg">
<g id="SVG" clip-path="url(#clip0_66_150)">
<g id="Clip path group">
<mask id="mask0_66_150" style="mask-type:luminance" maskUnits="userSpaceOnUse" x="0" y="0" width="50" height="50">
<g id="clip0_716_830">
<path id="Vector" d="M49.5 0.39502H0.5V49.395H49.5V0.39502Z" fill="white"/>
</g>
</mask>
<g mask="url(#mask0_66_150)">
<g id="Group">
<path id="Vector_2" d="M25.0003 13.1818C18.5418 13.1818 13.2871 18.4365 13.2871 24.895C13.2871 31.3534 18.5418 36.6081 25.0003 36.6081C31.4587 36.6081 36.7134 31.3534 36.7134 24.895C36.7134 18.4365 31.4587 13.1818 25.0003 13.1818ZM25.0003 33.6798C20.1564 33.6798 16.2154 29.7388 16.2154 24.895C16.2154 20.0511 20.1564 16.1101 25.0003 16.1101C29.8441 16.1101 33.7851 20.0511 33.7851 24.895C33.7851 29.7388 29.8441 33.6798 25.0003 33.6798Z" fill="#3A7DEC"/>
<path id="Vector_3" d="M48.3471 19.3158L44.581 18.4971C44.2535 17.4945 43.8479 16.5165 43.369 15.5744L45.4539 12.3313C45.8263 11.7519 45.7444 10.9911 45.2577 10.5044L39.3906 4.63736C38.9039 4.15062 38.1431 4.06875 37.5637 4.44109L34.3206 6.526C33.3785 6.04711 32.4005 5.6415 31.3979 5.31401L30.5792 1.54794C30.433 0.875031 29.8371 0.39502 29.1485 0.39502H20.8515C20.1629 0.39502 19.567 0.875031 19.4208 1.54794L18.6021 5.31401C17.5995 5.6415 16.6215 6.04711 15.6794 6.526L12.4363 4.44109C11.8569 4.06875 11.0961 4.15062 10.6094 4.63736L4.74234 10.5044C4.2556 10.9911 4.17373 11.7519 4.54607 12.3313L6.63098 15.5744C6.15209 16.5165 5.74648 17.4945 5.41899 18.4971L1.65292 19.3158C0.980011 19.4624 0.5 20.0579 0.5 20.7465V29.0435C0.5 29.7321 0.980011 30.3276 1.65292 30.4742L5.41899 31.2929C5.74648 32.2955 6.15209 33.2735 6.63098 34.2156L4.54607 37.4587C4.17373 38.0381 4.2556 38.7989 4.74234 39.2856L10.6094 45.1527C11.0961 45.6394 11.8569 45.7213 12.4363 45.3489L15.6794 43.264C16.6215 43.7429 17.5995 44.1485 18.6021 44.476L19.4208 48.2421C19.567 48.915 20.1629 49.395 20.8515 49.395H29.1485C29.8371 49.395 30.433 48.915 30.5792 48.2421L31.3979 44.476C32.4005 44.1485 33.3785 43.7429 34.3206 43.264L37.5637 45.3489C38.1431 45.7213 38.9039 45.6398 39.3906 45.1527L45.2577 39.2856C45.7444 38.7989 45.8263 38.0381 45.4539 37.4587L43.369 34.2156C43.8479 33.2735 44.2535 32.2955 44.581 31.2929L48.3471 30.4742C49.02 30.3276 49.5 29.7321 49.5 29.0435V20.7465C49.5 20.0579 49.02 19.4624 48.3471 19.3158ZM46.5717 27.8633L43.1185 28.614C42.5881 28.7295 42.1649 29.1287 42.0191 29.6514C41.6396 31.0125 41.0938 32.3288 40.397 33.5636C40.1301 34.0365 40.1465 34.6182 40.4404 35.075L42.3525 38.0493L38.1547 42.2475L35.18 40.3354C34.7232 40.0415 34.1415 40.0251 33.669 40.292C32.4338 40.9888 31.1175 41.5346 29.7564 41.9141C29.2337 42.0599 28.8345 42.4831 28.719 43.0135L27.9683 46.4667H22.0317L21.281 43.0135C21.1655 42.4831 20.7663 42.0599 20.2436 41.9141C18.8825 41.5346 17.5662 40.9888 16.3314 40.292C15.8585 40.0251 15.2768 40.0419 14.82 40.3354L11.8457 42.2475L7.64783 38.0493L9.55965 35.075C9.85349 34.6182 9.87031 34.0365 9.60339 33.5636C8.90655 32.3288 8.36074 31.0125 7.98092 29.6514C7.83512 29.1287 7.41231 28.7295 6.88183 28.614L3.42829 27.8633V21.9267L6.88145 21.176C7.41193 21.0605 7.83512 20.6613 7.98092 20.1386C8.36037 18.7775 8.90617 17.4612 9.60301 16.2264C9.86993 15.7535 9.85349 15.1718 9.55965 14.715L7.64745 11.7407L11.8453 7.54247L14.82 9.45467C15.2768 9.74851 15.8585 9.76495 16.331 9.49803C17.5662 8.80119 18.8825 8.25539 20.2436 7.87594C20.7663 7.73014 21.1655 7.30695 21.281 6.77647L22.0317 3.32331H27.9683L28.719 6.77647C28.8345 7.30695 29.2337 7.73014 29.7564 7.87594C31.1175 8.25539 32.4338 8.80119 33.6686 9.49803C34.1415 9.76495 34.7232 9.74813 35.18 9.45467L38.1543 7.54247L42.3522 11.7407L40.4404 14.715C40.1465 15.1718 40.1297 15.7535 40.3966 16.2264C41.0938 17.4612 41.6393 18.7775 42.0191 20.1386C42.1649 20.6613 42.5877 21.0605 43.1182 21.176L46.5717 21.9267V27.8633Z" fill="#3A7DEC"/>
</g>
</g>
</g>
</g>
<defs>
<clipPath id="clip0_66_150">
<rect width="49" height="49" fill="white" transform="translate(0.5 0.39502)"/>
</clipPath>
</defs>
</svg>
