<svg width="38" height="39" viewBox="0 0 38 39" fill="none" xmlns="http://www.w3.org/2000/svg">
<g id="Frame">
<path id="Vector" d="M32.1701 6.39473L19.5604 2.09746C19.4082 2.04551 19.2041 2.01953 19 2.01953C18.7959 2.01953 18.5918 2.04551 18.4396 2.09746L5.82988 6.39473C5.52188 6.49863 5.26953 6.85488 5.26953 7.18145V25.083C5.26953 25.4096 5.48105 25.84 5.73711 26.0441L18.5287 36.0117C18.6586 36.1119 18.8256 36.1639 18.9963 36.1639C19.167 36.1639 19.3377 36.1119 19.4639 36.0117L32.2555 26.0441C32.5115 25.8437 32.723 25.4133 32.723 25.083V7.18145C32.7305 6.85488 32.4781 6.50234 32.1701 6.39473ZM30.0586 24.3705L19 32.9873L7.94141 24.3705V8.50254L19 4.73223L30.0586 8.50254V24.3705ZM14.9996 16.9115C14.8883 16.7594 14.7102 16.6666 14.5172 16.6666H12.4688C12.2275 16.6666 12.0865 16.9412 12.2275 17.1379L16.9182 23.5949C16.9736 23.6708 17.0462 23.7326 17.1301 23.7752C17.2139 23.8177 17.3066 23.8399 17.4006 23.8399C17.4946 23.8399 17.5873 23.8177 17.6711 23.7752C17.7549 23.7326 17.8275 23.6708 17.883 23.5949L25.7725 12.733C25.9135 12.5363 25.7725 12.2617 25.5312 12.2617H23.4828C23.2936 12.2617 23.1117 12.3545 23.0004 12.5066L17.4006 20.218L14.9996 16.9115Z" fill="#18267A"/>
</g>
</svg>
