<svg width="81" height="81" viewBox="0 0 81 81" fill="none" xmlns="http://www.w3.org/2000/svg">
<rect x="0.5" y="0.923828" width="80" height="80" rx="4" fill="#FACC15"/>
<g clip-path="url(#clip0_66_460)">
<path d="M46.2917 40.9141C49.7343 42.6293 52.093 46.2087 52.093 51.0665V56.8678H28.8877V51.0665C28.8877 46.2016 31.2533 42.6189 34.689 40.9141M49.1924 33.6625C49.1924 38.4684 45.2963 42.3645 40.4904 42.3645C35.6844 42.3645 31.7884 38.4684 31.7884 33.6625M49.1924 33.6625C49.1924 28.8565 45.2963 24.9604 40.4904 24.9604C35.6844 24.9604 31.7884 28.8565 31.7884 33.6625M49.1924 33.6625C47.0169 33.6625 44.8414 34.1846 41.9407 30.7618C39.04 34.1846 35.4142 35.1128 31.7884 33.6625M33.2387 42.3645L40.5265 49.9891L47.742 42.3645M40.4904 49.6161V56.8678" stroke="#0F213C" stroke-width="2.67754"/>
</g>
<defs>
<clipPath id="clip0_66_460">
<rect width="34.808" height="34.808" fill="white" transform="translate(23.0859 23.5098)"/>
</clipPath>
</defs>
</svg>
