<svg width="38" height="38" viewBox="0 0 38 38" fill="none" xmlns="http://www.w3.org/2000/svg">
<g id="Frame">
<g id="Group">
<path id="Vector" d="M33.4762 20.8164V26.245C33.4762 28.5964 27.8051 31.6735 20.8095 31.6735C13.8139 31.6735 8.14282 28.5964 8.14282 26.245C8.14282 25.4714 8.14282 23.9634 8.14282 21.7212" stroke="#18267A" stroke-width="2" stroke-linecap="round" stroke-linejoin="round"/>
<path id="Vector_2" d="M8.67456 22.1892C10.2394 24.267 15.0803 26.2153 20.8095 26.2153C27.8051 26.2153 33.4762 23.3105 33.4762 20.8121C33.4762 19.4102 31.6905 17.8736 28.8872 16.7949" stroke="#18267A" stroke-width="2" stroke-linecap="round" stroke-linejoin="round"/>
<path id="Vector_3" d="M28.0477 11.769V17.1976C28.0477 19.5491 22.3766 22.6262 15.381 22.6262C8.38542 22.6262 2.71436 19.5491 2.71436 17.1976C2.71436 16.0372 2.71436 12.9295 2.71436 11.769" stroke="#18267A" stroke-width="2" stroke-linecap="round" stroke-linejoin="round"/>
<path id="Vector_4" fill-rule="evenodd" clip-rule="evenodd" d="M15.381 17.1679C22.3766 17.1679 28.0477 14.2631 28.0477 11.7647C28.0477 9.26628 22.3766 6.34033 15.381 6.34033C8.38542 6.34033 2.71436 9.26628 2.71436 11.7647C2.71436 14.2631 8.38542 17.1679 15.381 17.1679Z" stroke="#18267A" stroke-width="2" stroke-linecap="round" stroke-linejoin="round"/>
</g>
</g>
</svg>
