<svg width="17" height="12" viewBox="0 0 17 12" fill="none" xmlns="http://www.w3.org/2000/svg">
<path fill-rule="evenodd" clip-rule="evenodd" d="M6.00108 11.9999C5.73589 11.9999 5.48157 11.8945 5.29408 11.7069L1.29308 7.70492C1.19757 7.61267 1.12139 7.50233 1.06898 7.38032C1.01657 7.25832 0.988985 7.1271 0.987831 6.99432C0.986677 6.86154 1.01198 6.72986 1.06226 6.60697C1.11254 6.48407 1.18679 6.37242 1.28069 6.27852C1.37458 6.18463 1.48623 6.11038 1.60913 6.0601C1.73202 6.00982 1.8637 5.98451 1.99648 5.98567C2.12926 5.98682 2.26048 6.01441 2.38249 6.06682C2.50449 6.11923 2.61483 6.19541 2.70708 6.29092L6.00008 9.58592L15.2921 0.292919C15.4807 0.110761 15.7333 0.00996641 15.9955 0.0122448C16.2577 0.0145233 16.5085 0.119692 16.6939 0.305101C16.8793 0.490509 16.9845 0.741321 16.9868 1.00352C16.989 1.26571 16.8882 1.51832 16.7061 1.70692L6.70708 11.7069C6.51959 11.8945 6.26528 11.9999 6.00008 11.9999" fill="#121943"/>
</svg>
