<svg width="34" height="35" viewBox="0 0 34 35" fill="none" xmlns="http://www.w3.org/2000/svg">
<g id="Frame">
<path id="Vector" d="M17.0001 17.59C16.1595 17.59 15.3378 17.8393 14.6389 18.3063C13.94 18.7733 13.3953 19.437 13.0736 20.2136C12.7519 20.9902 12.6678 21.8447 12.8317 22.6691C12.9957 23.4936 13.4005 24.2508 13.9949 24.8452C14.5892 25.4396 15.3465 25.8444 16.1709 26.0083C16.9954 26.1723 17.8499 26.0882 18.6265 25.7665C19.4031 25.4448 20.0668 24.9001 20.5338 24.2012C21.0008 23.5023 21.2501 22.6806 21.2501 21.84C21.2501 20.7128 20.8023 19.6318 20.0053 18.8348C19.2083 18.0378 18.1273 17.59 17.0001 17.59ZM17.0001 23.2567C16.7199 23.2567 16.446 23.1736 16.213 23.0179C15.9801 22.8623 15.7985 22.641 15.6913 22.3821C15.584 22.1233 15.556 21.8384 15.6106 21.5636C15.6653 21.2888 15.8002 21.0364 15.9983 20.8383C16.1965 20.6401 16.4489 20.5052 16.7237 20.4506C16.9985 20.3959 17.2834 20.424 17.5422 20.5312C17.8011 20.6384 18.0223 20.82 18.178 21.0529C18.3337 21.2859 18.4167 21.5598 18.4167 21.84C18.4167 22.2157 18.2675 22.5761 18.0018 22.8417C17.7361 23.1074 17.3758 23.2567 17.0001 23.2567ZM15.9942 14.3458C16.129 14.4748 16.2878 14.5759 16.4617 14.6433C16.6313 14.7183 16.8147 14.757 17.0001 14.757C17.1855 14.757 17.3688 14.7183 17.5384 14.6433C17.7123 14.5759 17.8712 14.4748 18.0059 14.3458L21.2501 11.1583C21.5244 10.8841 21.6784 10.5121 21.6784 10.1242C21.6784 9.73629 21.5244 9.36428 21.2501 9.09001C20.9758 8.81573 20.6038 8.66164 20.2159 8.66164C19.828 8.66164 19.456 8.81573 19.1817 9.09001L18.4167 9.92584V4.84001C18.4167 4.46428 18.2675 4.10395 18.0018 3.83827C17.7361 3.5726 17.3758 3.42334 17.0001 3.42334C16.6244 3.42334 16.264 3.5726 15.9983 3.83827C15.7327 4.10395 15.5834 4.46428 15.5834 4.84001V9.92584L14.8184 9.09001C14.5441 8.81573 14.1721 8.66164 13.7842 8.66164C13.3964 8.66164 13.0244 8.81573 12.7501 9.09001C12.4758 9.36428 12.3217 9.73629 12.3217 10.1242C12.3217 10.5121 12.4758 10.8841 12.7501 11.1583L15.9942 14.3458ZM26.9167 21.84C26.9167 21.5598 26.8337 21.2859 26.678 21.0529C26.5223 20.82 26.3011 20.6384 26.0422 20.5312C25.7834 20.424 25.4985 20.3959 25.2237 20.4506C24.9489 20.5052 24.6965 20.6401 24.4983 20.8383C24.3002 21.0364 24.1653 21.2888 24.1106 21.5636C24.056 21.8384 24.084 22.1233 24.1913 22.3821C24.2985 22.641 24.4801 22.8623 24.713 23.0179C24.946 23.1736 25.2199 23.2567 25.5001 23.2567C25.8758 23.2567 26.2361 23.1074 26.5018 22.8417C26.7675 22.5761 26.9167 22.2157 26.9167 21.84ZM28.3334 11.9233H24.0834C23.7077 11.9233 23.3474 12.0726 23.0817 12.3383C22.816 12.6039 22.6667 12.9643 22.6667 13.34C22.6667 13.7157 22.816 14.0761 23.0817 14.3417C23.3474 14.6074 23.7077 14.7567 24.0834 14.7567H28.3334C28.7091 14.7567 29.0695 14.9059 29.3351 15.1716C29.6008 15.4373 29.7501 15.7976 29.7501 16.1733V27.5067C29.7501 27.8824 29.6008 28.2427 29.3351 28.5084C29.0695 28.7741 28.7091 28.9233 28.3334 28.9233H5.66675C5.29102 28.9233 4.93069 28.7741 4.66501 28.5084C4.39934 28.2427 4.25008 27.8824 4.25008 27.5067V16.1733C4.25008 15.7976 4.39934 15.4373 4.66501 15.1716C4.93069 14.9059 5.29102 14.7567 5.66675 14.7567H9.91675C10.2925 14.7567 10.6528 14.6074 10.9185 14.3417C11.1842 14.0761 11.3334 13.7157 11.3334 13.34C11.3334 12.9643 11.1842 12.6039 10.9185 12.3383C10.6528 12.0726 10.2925 11.9233 9.91675 11.9233H5.66675C4.53958 11.9233 3.45857 12.3711 2.66154 13.1681C1.86451 13.9652 1.41675 15.0462 1.41675 16.1733V27.5067C1.41675 28.6338 1.86451 29.7148 2.66154 30.5119C3.45857 31.3089 4.53958 31.7567 5.66675 31.7567H28.3334C29.4606 31.7567 30.5416 31.3089 31.3386 30.5119C32.1356 29.7148 32.5834 28.6338 32.5834 27.5067V16.1733C32.5834 15.0462 32.1356 13.9652 31.3386 13.1681C30.5416 12.3711 29.4606 11.9233 28.3334 11.9233ZM7.08341 21.84C7.08341 22.1202 7.1665 22.3941 7.32217 22.6271C7.47783 22.86 7.69908 23.0416 7.95795 23.1488C8.21681 23.2561 8.50165 23.2841 8.77646 23.2295C9.05127 23.1748 9.30369 23.0399 9.50182 22.8417C9.69994 22.6436 9.83486 22.3912 9.88953 22.1164C9.94419 21.8416 9.91613 21.5567 9.80891 21.2979C9.70169 21.039 9.52011 20.8178 9.28714 20.6621C9.05417 20.5064 8.78027 20.4233 8.50008 20.4233C8.12436 20.4233 7.76402 20.5726 7.49835 20.8383C7.23267 21.104 7.08341 21.4643 7.08341 21.84Z" fill="#18267A"/>
</g>
</svg>
