<svg width="51" height="30" viewBox="0 0 51 30" fill="none" xmlns="http://www.w3.org/2000/svg">
<rect x="0.218262" y="0.103516" width="50" height="29" rx="14.5" fill="#FACC15"/>
<g clip-path="url(#clip0_66_532)">
<path opacity="0.3" fill-rule="evenodd" clip-rule="evenodd" d="M35.6919 11.4756C30.4472 12.6305 16.6632 13.1476 15.3296 14.5817V16.8439C15.3296 17.4563 16.058 17.9639 18.064 18.4144C15.5089 16.1142 34.997 16.4727 35.6919 14.5151V11.4756Z" fill="white"/>
<path opacity="0.5" fill-rule="evenodd" clip-rule="evenodd" d="M30.4303 12.0939L30.4045 10.6499C23.8317 11.9194 15.9084 12.1449 15.3296 14.5201V17.1135C15.3296 17.4628 15.5354 17.7828 16.0242 18.0775C15.9213 15.2585 30.5074 16.3824 30.456 13.7126L30.4303 12.0939Z" fill="white"/>
<path fill-rule="evenodd" clip-rule="evenodd" d="M15.4968 17.619C15.4968 17.6262 15.5097 17.6335 15.5097 17.6444L15.4968 17.619ZM15.4839 17.5862C15.4839 17.5935 15.4968 17.6044 15.4968 17.6117L15.4839 17.5862ZM15.4196 17.4953C15.4196 17.5062 15.4325 17.5135 15.4325 17.5244L15.4196 17.4953ZM15.381 17.4007C15.381 17.4116 15.3939 17.4189 15.3939 17.4298L15.381 17.4007ZM15.3425 17.277C15.3425 17.2879 15.3425 17.2952 15.3425 17.3062V17.277ZM15.3425 17.2407C15.3425 17.2516 15.3425 17.2589 15.3425 17.2698V17.2407ZM15.3296 17.2116C15.3296 17.2225 15.3296 17.2298 15.3296 17.2407V17.2116ZM15.3296 17.1788C15.3296 17.1897 15.3296 17.197 15.3296 17.2079V17.1788ZM15.3296 14.5199V17.1134C15.3296 17.1243 15.3296 17.1352 15.3296 17.1461C15.3296 17.157 15.3296 17.1643 15.3296 17.1752V17.1788V17.1825C15.3296 17.1934 15.3296 17.2007 15.3296 17.2116V17.2152C15.3296 17.2261 15.3296 17.2334 15.3296 17.2443C15.3296 17.2552 15.3296 17.2625 15.3296 17.2734V17.277V17.3062C15.3296 17.328 15.3425 17.3462 15.3425 17.368V17.3716L15.3553 17.3971C15.3553 17.408 15.3682 17.4153 15.3682 17.4262V17.4298V17.4335L15.381 17.4589V17.4626V17.4662C15.381 17.4771 15.3939 17.4844 15.3939 17.4953C15.3939 17.5062 15.4068 17.5135 15.4068 17.5244V17.528C15.4068 17.539 15.4196 17.5462 15.4196 17.5571V17.5608C15.4196 17.5717 15.4325 17.579 15.4325 17.5899V17.5935C15.4325 17.6008 15.4454 17.6117 15.4454 17.619V17.6226V17.6262C15.4454 17.6335 15.4582 17.6408 15.4582 17.6517V17.6553L15.4839 17.6808V17.6844V17.6881C15.4968 17.6953 15.4968 17.7063 15.5097 17.7135V17.7172C15.5225 17.7281 15.5225 17.7354 15.5354 17.7463V17.7499C15.5483 17.7608 15.5483 17.7681 15.5611 17.779C15.574 17.7863 15.574 17.7972 15.5868 17.8045V17.8081C15.5997 17.8154 15.5997 17.8263 15.6126 17.8336V17.8372C15.6254 17.8445 15.6254 17.8554 15.6383 17.8627V17.8663C15.6512 17.8736 15.664 17.8845 15.664 17.8918C15.6769 17.899 15.6897 17.91 15.7026 17.9172V17.9209C15.7155 17.9281 15.7283 17.9391 15.7412 17.9463V17.95C15.7541 17.9572 15.7669 17.9682 15.7798 17.9754L15.7926 17.9827C15.8055 17.99 15.8184 17.9972 15.8312 18.0045L15.8441 18.0082L15.8827 18.03L15.8955 18.0373L15.9341 18.0591L15.947 18.0664L15.9727 18.0846C15.9213 15.2583 30.5074 16.3822 30.456 13.7124L30.4303 12.0938C23.806 12.7885 16.3586 13.4178 15.3296 14.5199Z" fill="white"/>
</g>
<defs>
<clipPath id="clip0_66_532">
<rect width="21" height="8" fill="white" transform="translate(14.7183 10.6035)"/>
</clipPath>
</defs>
</svg>
