<svg width="81" height="81" viewBox="0 0 81 81" fill="none" xmlns="http://www.w3.org/2000/svg">
<rect x="0.5" y="0.923828" width="80" height="80" rx="4" fill="#FACC15"/>
<g clip-path="url(#clip0_66_426)">
<path d="M57.8939 23.5098H23.0859V58.3178H57.8939V23.5098Z" fill="white" fill-opacity="0.01"/>
<path d="M40.4897 55.4173C48.4996 55.4173 54.993 48.9239 54.993 40.914C54.993 32.904 48.4996 26.4106 40.4897 26.4106C32.4797 26.4106 25.9863 32.904 25.9863 40.914C25.9863 48.9239 32.4797 55.4173 40.4897 55.4173Z" stroke="#0F213C" stroke-width="2.67754"/>
<path d="M27.437 45.9798C29.3456 46.7452 30.7196 46.7452 31.5588 45.9798C32.8177 44.8318 31.7314 41.3476 33.4945 40.3867C35.2575 39.4258 37.9437 43.6853 40.4543 42.2837C42.9649 40.8821 40.2178 37.1449 41.9601 35.6298C43.7024 34.1147 45.9679 35.8234 46.3639 33.2901C46.76 30.7567 44.5162 31.8555 44.0857 29.4615C43.7986 27.8655 43.7986 27.0263 44.0857 26.9438" stroke="#0F213C" stroke-width="2.67754" stroke-linecap="round"/>
<path d="M44.1312 54.9465C42.7722 53.5557 42.2829 52.2628 42.6635 51.0679C43.2343 49.2756 44.1759 49.3815 44.5865 48.2733C44.997 47.1651 43.8373 45.5867 46.4107 44.2374C48.1263 43.3378 50.4852 44.3801 53.4872 47.3641" stroke="#0F213C" stroke-width="2.67754" stroke-linecap="round"/>
</g>
<defs>
<clipPath id="clip0_66_426">
<rect width="34.808" height="34.808" fill="white" transform="translate(23.0859 23.5098)"/>
</clipPath>
</defs>
</svg>
