<svg width="38" height="38" viewBox="0 0 38 38" fill="none" xmlns="http://www.w3.org/2000/svg">
<g id="Frame">
<path id="Vector" d="M34.8333 3.17334H3.16659C2.74666 3.17334 2.34393 3.34015 2.047 3.63709C1.75007 3.93402 1.58325 4.33675 1.58325 4.75667V17.4233C1.58325 17.8433 1.75007 18.246 2.047 18.5429C2.34393 18.8399 2.74666 19.0067 3.16659 19.0067H7.91658V33.2567C7.91658 33.6766 8.0834 34.0793 8.38033 34.3763C8.67727 34.6732 9.07999 34.84 9.49992 34.84H28.4999C28.9198 34.84 29.3226 34.6732 29.6195 34.3763C29.9164 34.0793 30.0833 33.6766 30.0833 33.2567V19.0067H34.8333C35.2532 19.0067 35.6559 18.8399 35.9528 18.5429C36.2498 18.246 36.4166 17.8433 36.4166 17.4233V4.75667C36.4166 4.33675 36.2498 3.93402 35.9528 3.63709C35.6559 3.34015 35.2532 3.17334 34.8333 3.17334ZM11.0833 31.6733V28.5067C11.9231 28.5067 12.7286 28.8403 13.3224 29.4342C13.9163 30.028 14.2499 30.8335 14.2499 31.6733H11.0833ZM26.9166 31.6733H23.7499C23.7499 30.8335 24.0835 30.028 24.6774 29.4342C25.2713 28.8403 26.0767 28.5067 26.9166 28.5067V31.6733ZM26.9166 25.34C25.2369 25.34 23.626 26.0073 22.4382 27.195C21.2505 28.3827 20.5833 29.9936 20.5833 31.6733H17.4166C17.4166 29.9936 16.7493 28.3827 15.5616 27.195C14.3739 26.0073 12.763 25.34 11.0833 25.34V12.6733H26.9166V25.34ZM33.2499 15.84H30.0833V11.09C30.0833 10.6701 29.9164 10.2674 29.6195 9.97042C29.3226 9.67349 28.9198 9.50667 28.4999 9.50667H9.49992C9.07999 9.50667 8.67727 9.67349 8.38033 9.97042C8.0834 10.2674 7.91658 10.6701 7.91658 11.09V15.84H4.74992V6.34001H33.2499V15.84ZM18.9999 23.7567C19.9394 23.7567 20.8577 23.4781 21.6389 22.9562C22.42 22.4342 23.0288 21.6924 23.3883 20.8244C23.7479 19.9565 23.8419 19.0014 23.6586 18.08C23.4754 17.1586 23.023 16.3122 22.3587 15.6479C21.6944 14.9836 20.848 14.5312 19.9266 14.3479C19.0052 14.1647 18.0501 14.2587 17.1822 14.6182C16.3142 14.9778 15.5724 15.5866 15.0504 16.3677C14.5285 17.1488 14.2499 18.0672 14.2499 19.0067C14.2499 20.2665 14.7504 21.4746 15.6412 22.3654C16.532 23.2562 17.7401 23.7567 18.9999 23.7567ZM18.9999 17.4233C19.3131 17.4233 19.6192 17.5162 19.8796 17.6902C20.1399 17.8642 20.3429 18.1114 20.4627 18.4008C20.5826 18.6901 20.6139 19.0084 20.5528 19.3156C20.4917 19.6227 20.3409 19.9048 20.1195 20.1263C19.8981 20.3477 19.6159 20.4985 19.3088 20.5596C19.0017 20.6207 18.6833 20.5893 18.394 20.4695C18.1047 20.3496 17.8574 20.1467 17.6834 19.8863C17.5094 19.6259 17.4166 19.3198 17.4166 19.0067C17.4166 18.5867 17.5834 18.184 17.8803 17.8871C18.1773 17.5902 18.58 17.4233 18.9999 17.4233Z" fill="#18267A"/>
</g>
</svg>
