<svg width="44" height="44" viewBox="0 0 44 44" fill="none" xmlns="http://www.w3.org/2000/svg">
<g id="Frame" clip-path="url(#clip0_66_376)">
<g id="Group">
<path id="Vector" d="M33.4718 8.09197L33.4718 8.09198C33.7941 8.19259 34.0758 8.39358 34.2757 8.6656C34.4757 8.93763 34.5835 9.26645 34.5833 9.60406V9.60417V12.84V13.09H34.8333H38.5C38.9199 13.09 39.3227 13.2568 39.6196 13.5538C39.9165 13.8507 40.0833 14.2534 40.0833 14.6733V29.34C40.0833 29.7599 39.9165 30.1627 39.6196 30.4596C39.3227 30.7565 38.9199 30.9233 38.5 30.9233H38.4999L32.5966 30.9252L32.4725 30.9252L32.3975 31.024C31.7042 31.9378 30.8622 32.744 29.8892 33.4069L29.8891 33.407L20.1666 40.0374L10.4442 33.4088C8.99744 32.4224 7.81356 31.0975 6.99546 29.5494C6.17736 28.0012 5.74982 26.2767 5.75 24.5257L5.75 9.60432C5.75 9.6043 5.75 9.60419 5.75 9.60417C5.7502 9.26685 5.85813 8.93849 6.05806 8.6668C6.25799 8.39509 6.53948 8.19434 6.8615 8.09382L6.86158 8.09379L20.1667 3.93526L33.4718 8.09197ZM20.2413 7.27373L20.1667 7.2504L20.0921 7.27373L9.09206 10.7131L8.91667 10.7679V10.9517V24.5256C8.91667 24.5256 8.91667 24.5257 8.91667 24.5257C8.9164 25.6863 9.18257 26.8316 9.69465 27.8732C10.2067 28.9148 10.9511 29.8249 11.8704 30.5335L11.8703 30.5336L11.877 30.5384L12.2235 30.7878L12.2234 30.7878L12.2286 30.7914L20.0258 36.1099L20.1667 36.206L20.3076 36.1099L27.2412 31.3799L27.9104 30.9233H27.1003H18.3333C17.9134 30.9233 17.5107 30.7565 17.2137 30.4596C16.9168 30.1627 16.75 29.7599 16.75 29.34V14.6733C16.75 14.2534 16.9168 13.8507 17.2137 13.5538C17.5107 13.2568 17.9134 13.09 18.3333 13.09H31.1667H31.4167V12.84V10.9517V10.7679L31.2413 10.7131L20.2413 7.27373ZM20.1667 21.7567H19.9167V22.0067V27.5067V27.7567H20.1667H36.6667H36.9167V27.5067V22.0067V21.7567H36.6667H20.1667ZM19.9167 18.34V18.59H20.1667H36.6667H36.9167V18.34V16.5067V16.2567H36.6667H20.1667H19.9167V16.5067V18.34Z" fill="#18267A" stroke="#D9D9D9" stroke-width="0.5"/>
</g>
</g>
<defs>
<clipPath id="clip0_66_376">
<rect width="44" height="44" fill="white" transform="translate(0 0.00683594)"/>
</clipPath>
</defs>
</svg>
